<svg width="100%" height="100%" viewBox="0 0 141 88" fill="none" xmlns="http://www.w3.org/2000/svg">
    <g filter="url(#filter0_d)">
        <path
            d="M11.512 8.936H1.192V1.4H31.288V8.936H21.016V35H11.512V8.936ZM58.3638 22.04C58.3638 22.104 58.3158 22.856 58.2198 24.296H39.3078C39.6918 25.64 40.4278 26.68 41.5157 27.416C42.6358 28.12 44.0278 28.472 45.6918 28.472C46.9398 28.472 48.0118 28.296 48.9078 27.944C49.8358 27.592 50.7638 27.016 51.6918 26.216L56.4918 31.208C53.9638 34.024 50.2678 35.432 45.4038 35.432C42.3638 35.432 39.6918 34.856 37.3878 33.704C35.0838 32.552 33.2918 30.952 32.0117 28.904C30.7638 26.856 30.1398 24.536 30.1398 21.944C30.1398 19.384 30.7478 17.096 31.9638 15.08C33.2118 13.032 34.9238 11.432 37.0998 10.28C39.2758 9.128 41.7238 8.552 44.4438 8.552C47.0358 8.552 49.3878 9.096 51.4998 10.184C53.6118 11.24 55.2758 12.792 56.4918 14.84C57.7398 16.856 58.3638 19.256 58.3638 22.04ZM44.4918 15.032C43.0838 15.032 41.8998 15.432 40.9398 16.232C40.0118 17.032 39.4198 18.12 39.1638 19.496H49.8198C49.5638 18.12 48.9558 17.032 47.9958 16.232C47.0678 15.432 45.8998 15.032 44.4918 15.032ZM72.9535 8.552C77.2735 8.552 80.5695 9.544 82.8415 11.528C85.1135 13.48 86.2495 16.488 86.2495 20.552V35H77.7535V31.64C76.4415 34.168 73.8815 35.432 70.0735 35.432C68.0575 35.432 66.3135 35.08 64.8415 34.376C63.3695 33.672 62.2495 32.728 61.4815 31.544C60.7455 30.328 60.3775 28.952 60.3775 27.416C60.3775 24.952 61.3215 23.048 63.2095 21.704C65.0975 20.328 68.0095 19.64 71.9455 19.64H77.1295C76.9695 16.888 75.1295 15.512 71.6095 15.512C70.3615 15.512 69.0975 15.72 67.8175 16.136C66.5375 16.52 65.4495 17.064 64.5535 17.768L61.4815 11.576C62.9215 10.616 64.6655 9.88 66.7135 9.368C68.7935 8.824 70.8735 8.552 72.9535 8.552ZM72.6175 29.672C73.6735 29.672 74.6015 29.416 75.4015 28.904C76.2015 28.392 76.7775 27.64 77.1295 26.648V24.392H73.1935C70.5375 24.392 69.2095 25.272 69.2095 27.032C69.2095 27.832 69.5135 28.472 70.1215 28.952C70.7295 29.432 71.5615 29.672 72.6175 29.672ZM125.894 8.552C129.094 8.552 131.638 9.512 133.526 11.432C135.446 13.352 136.406 16.248 136.406 20.12V35H127.286V21.608C127.286 19.784 126.934 18.44 126.23 17.576C125.558 16.712 124.598 16.28 123.35 16.28C121.974 16.28 120.87 16.76 120.038 17.72C119.206 18.68 118.79 20.136 118.79 22.088V35H109.67V21.608C109.67 18.056 108.358 16.28 105.734 16.28C104.326 16.28 103.206 16.76 102.374 17.72C101.542 18.68 101.126 20.136 101.126 22.088V35H92.0061V8.984H100.694V11.72C101.654 10.664 102.79 9.88 104.102 9.368C105.446 8.824 106.902 8.552 108.47 8.552C110.294 8.552 111.926 8.888 113.366 9.56C114.806 10.232 115.974 11.256 116.87 12.632C117.894 11.32 119.19 10.312 120.758 9.608C122.326 8.904 124.038 8.552 125.894 8.552ZM16.168 75.672C13.448 75.672 10.808 75.336 8.248 74.664C5.688 73.992 3.608 73.096 2.008 71.976L5.128 64.968C6.632 65.96 8.376 66.76 10.36 67.368C12.344 67.976 14.296 68.28 16.216 68.28C19.864 68.28 21.688 67.368 21.688 65.544C21.688 64.584 21.16 63.88 20.104 63.432C19.08 62.952 17.416 62.456 15.112 61.944C12.584 61.4 10.472 60.824 8.776 60.216C7.08 59.576 5.624 58.568 4.408 57.192C3.192 55.816 2.584 53.96 2.584 51.624C2.584 49.576 3.144 47.736 4.264 46.104C5.384 44.44 7.048 43.128 9.256 42.168C11.496 41.208 14.232 40.728 17.464 40.728C19.672 40.728 21.848 40.984 23.992 41.496C26.136 41.976 28.024 42.696 29.656 43.656L26.728 50.712C23.528 48.984 20.424 48.12 17.416 48.12C15.528 48.12 14.152 48.408 13.288 48.984C12.424 49.528 11.992 50.248 11.992 51.144C11.992 52.04 12.504 52.712 13.528 53.16C14.552 53.608 16.2 54.072 18.472 54.552C21.032 55.096 23.144 55.688 24.808 56.328C26.504 56.936 27.96 57.928 29.176 59.304C30.424 60.648 31.048 62.488 31.048 64.824C31.048 66.84 30.488 68.664 29.368 70.296C28.248 71.928 26.568 73.24 24.328 74.232C22.088 75.192 19.368 75.672 16.168 75.672ZM51.3741 48.552C53.7421 48.552 55.8861 49.112 57.8061 50.232C59.7581 51.32 61.2941 52.888 62.4141 54.936C63.5661 56.952 64.1421 59.304 64.1421 61.992C64.1421 64.68 63.5661 67.048 62.4141 69.096C61.2941 71.112 59.7581 72.68 57.8061 73.8C55.8861 74.888 53.7421 75.432 51.3741 75.432C48.3341 75.432 45.9181 74.52 44.1261 72.696V84.312H35.0061V48.984H43.6941V51.576C45.3901 49.56 47.9501 48.552 51.3741 48.552ZM49.4541 68.184C51.0541 68.184 52.3661 67.64 53.3901 66.552C54.4141 65.432 54.9261 63.912 54.9261 61.992C54.9261 60.072 54.4141 58.568 53.3901 57.48C52.3661 56.36 51.0541 55.8 49.4541 55.8C47.8541 55.8 46.5421 56.36 45.5181 57.48C44.4941 58.568 43.9821 60.072 43.9821 61.992C43.9821 63.912 44.4941 65.432 45.5181 66.552C46.5421 67.64 47.8541 68.184 49.4541 68.184ZM68.3811 48.984H77.5011V75H68.3811V48.984ZM72.9411 46.104C71.2771 46.104 69.9331 45.64 68.9091 44.712C67.8851 43.784 67.3731 42.632 67.3731 41.256C67.3731 39.88 67.8851 38.728 68.9091 37.8C69.9331 36.872 71.2771 36.408 72.9411 36.408C74.6051 36.408 75.9491 36.856 76.9731 37.752C77.9971 38.616 78.5091 39.736 78.5091 41.112C78.5091 42.552 77.9971 43.752 76.9731 44.712C75.9491 45.64 74.6051 46.104 72.9411 46.104ZM92.116 52.104C93.044 50.92 94.244 50.04 95.716 49.464C97.22 48.856 98.932 48.552 100.852 48.552V56.76C100.02 56.664 99.332 56.616 98.788 56.616C96.836 56.616 95.3 57.144 94.18 58.2C93.092 59.256 92.548 60.872 92.548 63.048V75H83.428V48.984H92.116V52.104ZM104.616 48.984H113.736V75H104.616V48.984ZM109.176 46.104C107.512 46.104 106.168 45.64 105.144 44.712C104.12 43.784 103.608 42.632 103.608 41.256C103.608 39.88 104.12 38.728 105.144 37.8C106.168 36.872 107.512 36.408 109.176 36.408C110.84 36.408 112.184 36.856 113.208 37.752C114.232 38.616 114.744 39.736 114.744 41.112C114.744 42.552 114.232 43.752 113.208 44.712C112.184 45.64 110.84 46.104 109.176 46.104ZM137.614 73.944C136.846 74.424 135.902 74.792 134.782 75.048C133.694 75.304 132.526 75.432 131.278 75.432C127.886 75.432 125.278 74.6 123.454 72.936C121.63 71.272 120.718 68.792 120.718 65.496V56.76H116.926V49.944H120.718V43.176H129.838V49.944H135.79V56.76H129.838V65.4C129.838 66.328 130.078 67.064 130.558 67.608C131.07 68.12 131.742 68.376 132.574 68.376C133.63 68.376 134.558 68.104 135.358 67.56L137.614 73.944Z"
            fill="white" />
        <path
            d="M11.512 8.936H12.012L11.512 8.436V8.936ZM1.192 8.936H0.692L1.192 9.436V8.936ZM1.192 1.4V0.899998L0.692 1.4H1.192ZM31.288 1.4H31.788L31.288 0.899998V1.4ZM31.288 8.936V9.436L31.788 8.936H31.288ZM21.016 8.936V8.436L20.516 8.936H21.016ZM21.016 35V35.5L21.516 35H21.016ZM11.512 35H11.012L11.512 35.5V35ZM11.512 8.436H1.192V9.436H11.512V8.436ZM1.692 8.936V1.4H0.692V8.936H1.692ZM1.192 1.9H31.288V0.899998H1.192V1.9ZM30.788 1.4V8.936H31.788V1.4H30.788ZM31.288 8.436H21.016V9.436H31.288V8.436ZM20.516 8.936V35H21.516V8.936H20.516ZM21.016 34.5H11.512V35.5H21.016V34.5ZM12.012 35V8.936H11.012V35H12.012ZM58.2198 24.296V24.796L58.7186 24.3293L58.2198 24.296ZM39.3078 24.296V23.796L38.827 24.4334L39.3078 24.296ZM41.5158 27.416L41.2356 27.8301L41.2497 27.8393L41.5158 27.416ZM48.9077 27.944L48.7304 27.4765L48.7249 27.4786L48.9077 27.944ZM51.6917 26.216L52.0522 25.8694L51.3653 25.8373L51.6917 26.216ZM56.4918 31.208L56.8638 31.542L56.8522 30.8614L56.4918 31.208ZM37.3877 33.704L37.6114 33.2568L37.3877 33.704ZM32.0117 28.904L31.5848 29.1642L31.5878 29.169L32.0117 28.904ZM31.9638 15.08L31.5368 14.8198L31.5356 14.8218L31.9638 15.08ZM37.0998 10.28L36.8658 9.8381L37.0998 10.28ZM51.4998 10.184L51.2708 10.6285L51.2761 10.6312L51.4998 10.184ZM56.4918 14.84L56.0618 15.0953L56.0666 15.1032L56.4918 14.84ZM40.9398 16.232L40.6196 15.8478L40.6133 15.8533L40.9398 16.232ZM39.1637 19.496L38.6722 19.4045L39.1637 19.996V19.496ZM49.8198 19.496V19.996L50.3113 19.4045L49.8198 19.496ZM47.9958 16.232L47.6692 16.6108L47.6757 16.6161L47.9958 16.232ZM57.8638 22.04C57.8638 22.0371 57.8622 22.076 57.8556 22.1876C57.8497 22.2884 57.8407 22.4324 57.8288 22.6201C57.8048 22.9954 57.7689 23.5429 57.7209 24.2627L58.7186 24.3293C58.8134 22.9077 58.8638 22.1261 58.8638 22.04H57.8638ZM58.2198 23.796H39.3078V24.796H58.2198V23.796ZM38.827 24.4334C39.241 25.8825 40.0438 27.0239 41.2356 27.8301L41.7959 27.0019C40.8117 26.3361 40.1425 25.3975 39.7885 24.1586L38.827 24.4334ZM41.2497 27.8393C42.4676 28.6049 43.9577 28.972 45.6917 28.972V27.972C44.0978 27.972 42.8039 27.6351 41.7818 26.9927L41.2497 27.8393ZM45.6917 28.972C46.9847 28.972 48.1219 28.7899 49.0906 28.4094L48.7249 27.4786C47.9016 27.8021 46.8948 27.972 45.6917 27.972V28.972ZM49.0851 28.4115C50.0787 28.0346 51.056 27.4242 52.0182 26.5947L51.3653 25.8373C50.4715 26.6078 49.5928 27.1494 48.7304 27.4765L49.0851 28.4115ZM51.3313 26.5626L56.1313 31.5546L56.8522 30.8614L52.0522 25.8694L51.3313 26.5626ZM56.1197 30.874C53.7119 33.556 50.1689 34.932 45.4038 34.932V35.932C50.3666 35.932 54.2156 34.492 56.8638 31.542L56.1197 30.874ZM45.4038 34.932C42.4275 34.932 39.8345 34.3683 37.6114 33.2568L37.1641 34.1512C39.549 35.3437 42.3 35.932 45.4038 35.932V34.932ZM37.6114 33.2568C35.3839 32.1431 33.6637 30.6037 32.4357 28.639L31.5878 29.169C32.9198 31.3003 34.7836 32.9609 37.1641 34.1512L37.6114 33.2568ZM32.4387 28.6438C31.2423 26.6805 30.6397 24.4519 30.6397 21.944H29.6397C29.6397 24.6201 30.2852 27.0315 31.5848 29.1642L32.4387 28.6438ZM30.6397 21.944C30.6397 19.4668 31.227 17.2696 32.3919 15.3382L31.5356 14.8218C30.2685 16.9224 29.6397 19.3012 29.6397 21.944H30.6397ZM32.3907 15.3402C33.5906 13.3711 35.235 11.833 37.3337 10.7219L36.8658 9.8381C34.6125 11.031 32.8329 12.6929 31.5368 14.8198L32.3907 15.3402ZM37.3337 10.7219C39.4303 9.61192 41.7966 9.052 44.4438 9.052V8.052C41.6509 8.052 39.1212 8.64407 36.8658 9.8381L37.3337 10.7219ZM44.4438 9.052C46.9635 9.052 49.2359 9.58021 51.2708 10.6285L51.7287 9.73951C49.5396 8.61179 47.108 8.052 44.4438 8.052V9.052ZM51.2761 10.6312C53.3016 11.6439 54.8943 13.1289 56.0618 15.0953L56.9217 14.5847C55.6572 12.4551 53.9219 10.8361 51.7234 9.73679L51.2761 10.6312ZM56.0666 15.1032C57.2577 17.0272 57.8638 19.3326 57.8638 22.04H58.8638C58.8638 19.1794 58.2218 16.6848 56.9169 14.5768L56.0666 15.1032ZM44.4917 14.532C42.9825 14.532 41.6809 14.9635 40.6197 15.8479L41.2598 16.6161C42.1186 15.9005 43.185 15.532 44.4917 15.532V14.532ZM40.6133 15.8533C39.5871 16.7379 38.9459 17.9336 38.6722 19.4045L39.6553 19.5875C39.8936 18.3064 40.4364 17.3261 41.2662 16.6107L40.6133 15.8533ZM39.1637 19.996H49.8198V18.996H39.1637V19.996ZM50.3113 19.4045C50.0367 17.9286 49.3761 16.7315 48.3158 15.8479L47.6757 16.6161C48.5354 17.3325 49.0908 18.3114 49.3282 19.5875L50.3113 19.4045ZM48.3222 15.8533C47.29 14.9635 46.0006 14.532 44.4917 14.532V15.532C45.7989 15.532 46.8455 15.9005 47.6693 16.6107L48.3222 15.8533ZM82.8415 11.528L82.5126 11.9046L82.5157 11.9072L82.8415 11.528ZM86.2495 35V35.5L86.7495 35H86.2495ZM77.7535 35H77.2535L77.7535 35.5V35ZM77.7535 31.64H78.2535L77.3097 31.4097L77.7535 31.64ZM64.8415 34.376L64.6258 34.8271L64.8415 34.376ZM61.4815 31.544L61.0537 31.8029L61.062 31.8161L61.4815 31.544ZM63.2095 21.704L63.4995 22.1114L63.504 22.1081L63.2095 21.704ZM77.1295 19.64V20.14L77.6287 19.611L77.1295 19.64ZM67.8175 16.136L67.9612 16.615L67.972 16.6115L67.8175 16.136ZM64.5535 17.768L64.1056 17.9902L64.8624 18.1612L64.5535 17.768ZM61.4815 11.576L61.2042 11.16L61.0336 11.7982L61.4815 11.576ZM66.7135 9.368L66.8348 9.8531L66.84 9.85173L66.7135 9.368ZM75.4015 28.904L75.671 29.3251L75.4015 28.904ZM77.1295 26.648L77.6007 26.8152L77.6295 26.648H77.1295ZM77.1295 24.392H77.6295L77.1295 23.892V24.392ZM70.1215 28.952L69.8117 29.3444L70.1215 28.952ZM72.9535 9.052C77.2041 9.052 80.3642 10.0286 82.5126 11.9046L83.1704 11.1514C80.7748 9.05945 77.3429 8.052 72.9535 8.052V9.052ZM82.5157 11.9072C84.6414 13.7336 85.7495 16.579 85.7495 20.552H86.7495C86.7495 16.397 85.5856 13.2264 83.1673 11.1487L82.5157 11.9072ZM85.7495 20.552V35H86.7495V20.552H85.7495ZM86.2495 34.5H77.7535V35.5H86.2495V34.5ZM78.2535 35V31.64H77.2535V35H78.2535ZM77.3097 31.4097C76.1128 33.7159 73.7678 34.932 70.0735 34.932V35.932C73.9952 35.932 76.7702 34.6201 78.1973 31.8703L77.3097 31.4097ZM70.0735 34.932C68.115 34.932 66.4479 34.59 65.0572 33.9249L64.6258 34.8271C66.1791 35.57 68 35.932 70.0735 35.932V34.932ZM65.0572 33.9249C63.6551 33.2544 62.6114 32.3672 61.901 31.2719L61.062 31.8161C61.8876 33.0888 63.0839 34.0896 64.6258 34.8271L65.0572 33.9249ZM61.9092 31.2851C61.2243 30.1535 60.8775 28.8684 60.8775 27.416H59.8775C59.8775 29.0356 60.2667 30.5025 61.0537 31.8029L61.9092 31.2851ZM60.8775 27.416C60.8775 25.1017 61.7528 23.3548 63.4995 22.1113L62.9195 21.2967C60.8903 22.7412 59.8775 24.8023 59.8775 27.416H60.8775ZM63.504 22.1081C65.2655 20.8243 68.0499 20.14 71.9455 20.14V19.14C67.9691 19.14 64.9295 19.8317 62.915 21.2999L63.504 22.1081ZM71.9455 20.14H77.1295V19.14H71.9455V20.14ZM77.6287 19.611C77.542 18.1202 76.9907 16.9376 75.9289 16.1436C74.8874 15.3647 73.4233 15.012 71.6095 15.012V16.012C73.3157 16.012 74.5316 16.3473 75.3301 16.9444C76.1083 17.5264 76.557 18.4078 76.6303 19.669L77.6287 19.611ZM71.6095 15.012C70.3051 15.012 68.989 15.2295 67.663 15.6605L67.972 16.6115C69.206 16.2105 70.4179 16.012 71.6095 16.012V15.012ZM67.6738 15.6571C66.344 16.056 65.1975 16.6261 64.2446 17.3748L64.8624 18.1612C65.7015 17.5019 66.731 16.984 67.9612 16.6149L67.6738 15.6571ZM65.0014 17.5458L61.9294 11.3538L61.0336 11.7982L64.1056 17.9902L65.0014 17.5458ZM61.7589 11.992C63.142 11.0699 64.8306 10.3541 66.8348 9.85307L66.5922 8.88293C64.5004 9.40587 62.701 10.1621 61.2042 11.16L61.7589 11.992ZM66.84 9.85173C68.8801 9.31817 70.9176 9.052 72.9535 9.052V8.052C70.8294 8.052 68.7069 8.32983 66.587 8.88427L66.84 9.85173ZM72.6175 30.172C73.758 30.172 74.7817 29.8943 75.671 29.3251L75.132 28.4829C74.4213 28.9377 73.589 29.172 72.6175 29.172V30.172ZM75.671 29.3251C76.5748 28.7467 77.2158 27.8999 77.6007 26.8152L76.6583 26.4808C76.3392 27.3801 75.8282 28.0373 75.132 28.4829L75.671 29.3251ZM77.6295 26.648V24.392H76.6295V26.648H77.6295ZM77.1295 23.892H73.1935V24.892H77.1295V23.892ZM73.1935 23.892C71.8261 23.892 70.7134 24.1156 69.9293 24.6352C69.1091 25.1787 68.7095 26.005 68.7095 27.032H69.7095C69.7095 26.299 69.9739 25.8053 70.4817 25.4688C71.0256 25.1084 71.9049 24.892 73.1935 24.892V23.892ZM68.7095 27.032C68.7095 27.9792 69.0791 28.7661 69.8117 29.3444L70.4313 28.5596C69.9479 28.1779 69.7095 27.6848 69.7095 27.032H68.7095ZM69.8117 29.3444C70.5352 29.9156 71.4896 30.172 72.6175 30.172V29.172C71.6334 29.172 70.9238 28.9484 70.4313 28.5596L69.8117 29.3444ZM133.526 11.432L133.17 11.7826L133.173 11.7856L133.526 11.432ZM136.406 35V35.5L136.906 35H136.406ZM127.286 35H126.786L127.286 35.5V35ZM126.23 17.576L125.835 17.883L125.843 17.8918L126.23 17.576ZM120.038 17.72L120.416 18.0475L120.038 17.72ZM118.79 35V35.5L119.29 35H118.79ZM109.67 35H109.17L109.67 35.5V35ZM101.126 35V35.5L101.626 35H101.126ZM92.0061 35H91.5061L92.0061 35.5V35ZM92.0061 8.984V8.484L91.5061 8.984H92.0061ZM100.694 8.984H101.194L100.694 8.484V8.984ZM100.694 11.72H100.194L101.064 12.0563L100.694 11.72ZM104.102 9.368L104.284 9.83382L104.29 9.83147L104.102 9.368ZM113.366 9.56L113.578 9.10691L113.366 9.56ZM116.87 12.632L116.451 12.9048L117.264 12.9396L116.87 12.632ZM120.758 9.608L120.553 9.15186L120.758 9.608ZM125.894 9.052C128.987 9.052 131.393 9.97595 133.17 11.7826L133.883 11.0814C131.883 9.04805 129.201 8.052 125.894 8.052V9.052ZM133.173 11.7856C134.965 13.578 135.906 16.3237 135.906 20.12H136.906C136.906 16.1723 135.927 13.126 133.88 11.0784L133.173 11.7856ZM135.906 20.12V35H136.906V20.12H135.906ZM136.406 34.5H127.286V35.5H136.406V34.5ZM127.786 35V21.608H126.786V35H127.786ZM127.786 21.608C127.786 19.7368 127.428 18.2547 126.618 17.2602L125.843 17.8918C126.44 18.6253 126.786 19.8312 126.786 21.608H127.786ZM126.625 17.269C125.844 16.2651 124.728 15.78 123.35 15.78V16.78C124.468 16.78 125.272 17.1589 125.835 17.883L126.625 17.269ZM123.35 15.78C121.843 15.78 120.596 16.3131 119.66 17.3925L120.416 18.0475C121.144 17.2069 122.106 16.78 123.35 16.78V15.78ZM119.66 17.3925C118.717 18.4813 118.29 20.0776 118.29 22.088H119.29C119.29 20.1944 119.696 18.8787 120.416 18.0475L119.66 17.3925ZM118.29 22.088V35H119.29V22.088H118.29ZM118.79 34.5H109.67V35.5H118.79V34.5ZM110.17 35V21.608H109.17V35H110.17ZM110.17 21.608C110.17 19.7851 109.836 18.3271 109.088 17.3149C108.32 16.2744 107.171 15.78 105.734 15.78V16.78C106.921 16.78 107.741 17.1736 108.284 17.9091C108.848 18.6729 109.17 19.8789 109.17 21.608H110.17ZM105.734 15.78C104.199 15.78 102.934 16.3103 101.996 17.3925L102.752 18.0475C103.478 17.2097 104.453 16.78 105.734 16.78V15.78ZM101.996 17.3925C101.053 18.4813 100.626 20.0776 100.626 22.088H101.626C101.626 20.1944 102.032 18.8787 102.752 18.0475L101.996 17.3925ZM100.626 22.088V35H101.626V22.088H100.626ZM101.126 34.5H92.0061V35.5H101.126V34.5ZM92.5061 35V8.984H91.5061V35H92.5061ZM92.0061 9.484H100.694V8.484H92.0061V9.484ZM100.194 8.984V11.72H101.194V8.984H100.194ZM101.064 12.0563C101.973 11.0566 103.045 10.3174 104.284 9.83379L103.92 8.90221C102.535 9.44265 101.335 10.2714 100.324 11.3837L101.064 12.0563ZM104.29 9.83147C105.569 9.3135 106.961 9.052 108.47 9.052V8.052C106.843 8.052 105.323 8.3345 103.915 8.90452L104.29 9.83147ZM108.47 9.052C110.232 9.052 111.79 9.37625 113.155 10.0131L113.578 9.10691C112.062 8.39975 110.356 8.052 108.47 8.052V9.052ZM113.155 10.0131C114.507 10.6442 115.604 11.6044 116.451 12.9048L117.289 12.3592C116.344 10.9076 115.105 9.81978 113.578 9.10691L113.155 10.0131ZM117.264 12.9396C118.237 11.694 119.467 10.7359 120.963 10.0641L120.553 9.15186C118.914 9.88808 117.552 10.946 116.476 12.3244L117.264 12.9396ZM120.963 10.0641C122.462 9.3913 124.103 9.052 125.894 9.052V8.052C123.973 8.052 122.191 8.4167 120.553 9.15186L120.963 10.0641ZM8.248 74.664L8.37495 74.1804L8.248 74.664ZM2.008 71.976L1.55122 71.7726L1.72127 72.3856L2.008 71.976ZM5.128 64.968L5.4033 64.5506L4.67122 64.7646L5.128 64.968ZM10.36 67.368L10.5065 66.8899L10.36 67.368ZM20.104 63.432L19.8918 63.8847L19.9087 63.8923L20.104 63.432ZM15.112 61.944L15.2205 61.4559L15.2172 61.4552L15.112 61.944ZM8.776 60.216L8.59945 60.6839L8.60727 60.6867L8.776 60.216ZM4.264 46.104L4.67627 46.3869L4.67879 46.3832L4.264 46.104ZM9.256 42.168L9.05904 41.7084L9.05664 41.7095L9.256 42.168ZM23.992 41.496L23.8759 41.9824L23.8828 41.9839L23.992 41.496ZM29.656 43.656L30.1178 43.8476L29.9095 43.225L29.656 43.656ZM26.728 50.712L26.4904 51.152L27.1898 50.9036L26.728 50.712ZM13.288 48.984L13.5545 49.4073L13.5653 49.4L13.288 48.984ZM13.528 53.16L13.3276 53.6181L13.528 53.16ZM18.472 54.552L18.5759 54.0629L18.5754 54.0628L18.472 54.552ZM24.808 56.328L24.6285 56.7948L24.6393 56.7987L24.808 56.328ZM29.176 59.304L28.8012 59.6352L28.8096 59.6442L29.176 59.304ZM29.368 70.296L28.9557 70.0131L29.368 70.296ZM24.328 74.232L24.525 74.6916L24.5305 74.6892L24.328 74.232ZM16.168 75.172C13.4897 75.172 10.8924 74.8412 8.37495 74.1804L8.12105 75.1476C10.7236 75.8308 13.4063 76.172 16.168 76.172V75.172ZM8.37495 74.1804C5.85317 73.5184 3.83243 72.6428 2.29473 71.5664L1.72127 72.3856C3.38357 73.5492 5.52283 74.4656 8.12105 75.1476L8.37495 74.1804ZM2.46478 72.1794L5.58478 65.1714L4.67122 64.7646L1.55122 71.7726L2.46478 72.1794ZM4.8527 65.3854C6.40202 66.4073 8.19065 67.2262 10.2135 67.8461L10.5065 66.8899C8.56135 66.2938 6.86198 65.5127 5.4033 64.5506L4.8527 65.3854ZM10.2135 67.8461C12.2412 68.4674 14.2425 68.78 16.216 68.78V67.78C14.3495 67.78 12.4468 67.4846 10.5065 66.8899L10.2135 67.8461ZM16.216 68.78C18.0655 68.78 19.5271 68.5515 20.5436 68.0432C21.0589 67.7856 21.4754 67.4482 21.762 67.0183C22.0507 66.5854 22.188 66.0875 22.188 65.544H21.188C21.188 65.9125 21.0973 66.2126 20.93 66.4636C20.7606 66.7178 20.4931 66.9504 20.0964 67.1488C19.2889 67.5525 18.0145 67.78 16.216 67.78V68.78ZM22.188 65.544C22.188 64.9662 22.0269 64.4425 21.692 63.996C21.3614 63.5552 20.8844 63.22 20.2993 62.9717L19.9087 63.8923C20.3796 64.092 20.6946 64.3328 20.892 64.596C21.0851 64.8535 21.188 65.1618 21.188 65.544H22.188ZM20.3162 62.9793C19.2396 62.4746 17.5304 61.9692 15.2205 61.4559L15.0035 62.4321C17.3016 62.9428 18.9204 63.4294 19.8918 63.8847L20.3162 62.9793ZM15.2172 61.4552C12.7023 60.914 10.6132 60.3435 8.94473 59.7453L8.60727 60.6867C10.3308 61.3045 12.4657 61.886 15.0068 62.4328L15.2172 61.4552ZM8.95253 59.7482C7.33375 59.1373 5.94547 58.1767 4.78266 56.8609L4.03334 57.5231C5.30253 58.9593 6.82625 60.0147 8.59947 60.6838L8.95253 59.7482ZM4.78266 56.8609C3.66752 55.599 3.084 53.8723 3.084 51.624H2.084C2.084 54.0477 2.71648 56.033 4.03334 57.5231L4.78266 56.8609ZM3.084 51.624C3.084 49.6733 3.61548 47.9326 4.67626 46.3869L3.85174 45.8211C2.67252 47.5394 2.084 49.4787 2.084 51.624H3.084ZM4.67879 46.3832C5.73571 44.8129 7.31711 43.5562 9.45536 42.6265L9.05664 41.7095C6.77889 42.6998 5.03229 44.0671 3.84921 45.8248L4.67879 46.3832ZM9.45296 42.6276C11.614 41.7014 14.2788 41.228 17.464 41.228V40.228C14.1852 40.228 11.378 40.7146 9.05904 41.7084L9.45296 42.6276ZM17.464 41.228C19.633 41.228 21.77 41.4794 23.8759 41.9823L24.1081 41.0097C21.926 40.4886 19.711 40.228 17.464 40.228V41.228ZM23.8828 41.9839C25.984 42.4543 27.8219 43.1572 29.4025 44.087L29.9095 43.225C28.2261 42.2348 26.288 41.4977 24.1012 41.0081L23.8828 41.9839ZM29.1942 43.4644L26.2662 50.5204L27.1898 50.9036L30.1178 43.8476L29.1942 43.4644ZM26.9656 50.272C23.7077 48.5128 20.5226 47.62 17.416 47.62V48.62C20.3254 48.62 23.3483 49.4552 26.4904 51.152L26.9656 50.272ZM17.416 47.62C15.4991 47.62 14.0002 47.9083 13.0107 48.568L13.5653 49.4C14.3038 48.9077 15.5569 48.62 17.416 48.62V47.62ZM13.0216 48.5609C12.0361 49.1814 11.492 50.0497 11.492 51.144H12.492C12.492 50.4463 12.8119 49.8746 13.5544 49.4071L13.0216 48.5609ZM11.492 51.144C11.492 51.6944 11.6518 52.1945 11.9783 52.623C12.2998 53.045 12.762 53.3706 13.3276 53.6181L13.7284 52.7019C13.27 52.5014 12.9642 52.267 12.7737 52.017C12.5882 51.7735 12.492 51.4896 12.492 51.144H11.492ZM13.3276 53.6181C14.401 54.0877 16.0909 54.56 18.3686 55.0412L18.5754 54.0628C16.3091 53.584 14.703 53.1283 13.7284 52.7019L13.3276 53.6181ZM18.3681 55.0411C20.9131 55.5819 22.9975 56.1674 24.6285 56.7947L24.9875 55.8613C23.2905 55.2086 21.1509 54.6101 18.5759 54.0629L18.3681 55.0411ZM24.6393 56.7987C26.2544 57.3777 27.64 58.321 28.8013 59.6351L29.5507 58.9729C28.28 57.535 26.7536 56.4943 24.9767 55.8573L24.6393 56.7987ZM28.8096 59.6442C29.9501 60.8725 30.548 62.5784 30.548 64.824H31.548C31.548 62.3976 30.8979 60.4235 29.5424 58.9638L28.8096 59.6442ZM30.548 64.824C30.548 66.741 30.0175 68.466 28.9557 70.0131L29.7803 70.5789C30.9585 68.862 31.548 66.939 31.548 64.824H30.548ZM28.9557 70.0131C27.8994 71.5524 26.3009 72.8115 24.1255 73.7748L24.5305 74.6892C26.8351 73.6685 28.5967 72.3036 29.7803 70.5789L28.9557 70.0131ZM24.131 73.7724C21.9695 74.6988 19.3205 75.172 16.168 75.172V76.172C19.4155 76.172 22.2065 75.6852 24.525 74.6916L24.131 73.7724ZM57.8061 50.232L57.5541 50.664L57.5627 50.6687L57.8061 50.232ZM62.4141 54.936L61.9754 55.1759L61.98 55.1841L62.4141 54.936ZM62.4141 69.096L61.9783 68.8509L61.977 68.8532L62.4141 69.096ZM57.8061 73.8L58.0526 74.235L58.055 74.2337L57.8061 73.8ZM44.1261 72.696L44.4828 72.3456L43.6261 72.696H44.1261ZM44.1261 84.312V84.812L44.6261 84.312H44.1261ZM35.0061 84.312H34.5061L35.0061 84.812V84.312ZM35.0061 48.984V48.484L34.5061 48.984H35.0061ZM43.6941 48.984H44.1941L43.6941 48.484V48.984ZM43.6941 51.576H43.1941L44.0767 51.8979L43.6941 51.576ZM53.3901 66.552L53.7543 66.8947L53.7591 66.8894L53.3901 66.552ZM53.3901 57.48L53.0211 57.8174L53.026 57.8227L53.3901 57.48ZM45.5181 57.48L45.8823 57.8227L45.8871 57.8174L45.5181 57.48ZM45.5181 66.552L45.1491 66.8894L45.154 66.8947L45.5181 66.552ZM51.3741 49.052C53.6596 49.052 55.7157 49.5914 57.5542 50.6639L58.0581 49.8001C56.0566 48.6326 53.8247 48.052 51.3741 48.052V49.052ZM57.5627 50.6687C59.4286 51.7087 60.8986 53.2067 61.9754 55.1759L62.8528 54.6961C61.6897 52.5693 60.0877 50.9313 58.0496 49.7953L57.5627 50.6687ZM61.98 55.1841C63.0824 57.1133 63.6421 59.3771 63.6421 61.992H64.6421C64.6421 59.2309 64.0498 56.7907 62.8482 54.6879L61.98 55.1841ZM63.6421 61.992C63.6421 64.6067 63.0825 66.8879 61.9783 68.8509L62.8499 69.3411C64.0498 67.2081 64.6421 64.7533 64.6421 61.992H63.6421ZM61.977 68.8532C60.9001 70.7917 59.4283 72.2928 57.5573 73.3663L58.055 74.2337C60.0879 73.0672 61.6881 71.4323 62.8512 69.3388L61.977 68.8532ZM57.5596 73.365C55.7203 74.4073 53.6622 74.932 51.3741 74.932V75.932C53.822 75.932 56.052 75.3687 58.0526 74.235L57.5596 73.365ZM51.3741 74.932C48.441 74.932 46.1632 74.0561 44.4828 72.3456L43.7695 73.0464C45.673 74.9839 48.2273 75.932 51.3741 75.932V74.932ZM43.6261 72.696V84.312H44.6261V72.696H43.6261ZM44.1261 83.812H35.0061V84.812H44.1261V83.812ZM35.5061 84.312V48.984H34.5061V84.312H35.5061ZM35.0061 49.484H43.6941V48.484H35.0061V49.484ZM43.1941 48.984V51.576H44.1941V48.984H43.1941ZM44.0767 51.8979C45.6509 50.0267 48.0503 49.052 51.3741 49.052V48.052C47.85 48.052 45.1293 49.0933 43.3115 51.2541L44.0767 51.8979ZM49.4541 68.684C51.1811 68.684 52.6285 68.0908 53.7542 66.8947L53.026 66.2093C52.1037 67.1892 50.9272 67.684 49.4541 67.684V68.684ZM53.7591 66.8894C54.888 65.6547 55.4261 64.0025 55.4261 61.992H54.4261C54.4261 63.8215 53.9402 65.2093 53.0211 66.2146L53.7591 66.8894ZM55.4261 61.992C55.4261 59.9823 54.8883 58.3423 53.7542 57.1373L53.026 57.8227C53.94 58.7937 54.4261 60.1617 54.4261 61.992H55.4261ZM53.7591 57.1426C52.6348 55.9128 51.1859 55.3 49.4541 55.3V56.3C50.9223 56.3 52.0975 56.8072 53.0211 57.8174L53.7591 57.1426ZM49.4541 55.3C47.7223 55.3 46.2735 55.9128 45.1491 57.1426L45.8871 57.8174C46.8108 56.8072 47.9859 56.3 49.4541 56.3V55.3ZM45.154 57.1373C44.02 58.3423 43.4821 59.9823 43.4821 61.992H44.4821C44.4821 60.1617 44.9683 58.7937 45.8822 57.8227L45.154 57.1373ZM43.4821 61.992C43.4821 64.0025 44.0202 65.6547 45.1491 66.8894L45.8871 66.2146C44.968 65.2093 44.4821 63.8215 44.4821 61.992H43.4821ZM45.154 66.8947C46.2797 68.0908 47.7272 68.684 49.4541 68.684V67.684C47.9811 67.684 46.8045 67.1892 45.8822 66.2093L45.154 66.8947ZM68.3811 48.984V48.484L67.8811 48.984H68.3811ZM77.5011 48.984H78.0011L77.5011 48.484V48.984ZM77.5011 75V75.5L78.0011 75H77.5011ZM68.3811 75H67.8811L68.3811 75.5V75ZM68.9091 44.712L69.2449 44.3415L68.9091 44.712ZM68.9091 37.8L69.2449 38.1705L68.9091 37.8ZM76.9731 37.752L76.6438 38.1283L76.6507 38.1341L76.9731 37.752ZM76.9731 44.712L77.3089 45.0825L77.3151 45.0768L76.9731 44.712ZM68.3811 49.484H77.5011V48.484H68.3811V49.484ZM77.0011 48.984V75H78.0011V48.984H77.0011ZM77.5011 74.5H68.3811V75.5H77.5011V74.5ZM68.8811 75V48.984H67.8811V75H68.8811ZM72.9411 45.604C71.3745 45.604 70.1589 45.1698 69.2449 44.3415L68.5734 45.0825C69.7074 46.1102 71.1797 46.604 72.9411 46.604V45.604ZM69.2449 44.3415C68.325 43.5078 67.8731 42.4902 67.8731 41.256H66.8731C66.8731 42.7738 67.4453 44.0602 68.5734 45.0825L69.2449 44.3415ZM67.8731 41.256C67.8731 40.0218 68.325 39.0042 69.2449 38.1705L68.5734 37.4295C67.4453 38.4518 66.8731 39.7382 66.8731 41.256H67.8731ZM69.2449 38.1705C70.1589 37.3422 71.3745 36.908 72.9411 36.908V35.908C71.1797 35.908 69.7074 36.4018 68.5734 37.4295L69.2449 38.1705ZM72.9411 36.908C74.5122 36.908 75.7302 37.3288 76.6439 38.1283L77.3024 37.3757C76.1681 36.3832 74.6981 35.908 72.9411 35.908V36.908ZM76.6507 38.1341C77.5586 38.9002 78.0091 39.8787 78.0091 41.112H79.0091C79.0091 39.5933 78.4356 38.3318 77.2956 37.3699L76.6507 38.1341ZM78.0091 41.112C78.0091 42.4178 77.5514 43.4845 76.6312 44.3472L77.3151 45.0768C78.4428 44.0195 79.0091 42.6862 79.0091 41.112H78.0091ZM76.6374 44.3415C75.7234 45.1698 74.5077 45.604 72.9411 45.604V46.604C74.7026 46.604 76.1749 46.1102 77.3089 45.0825L76.6374 44.3415ZM92.116 52.104H91.616L92.5095 52.4124L92.116 52.104ZM95.716 49.464L95.8982 49.9296L95.9034 49.9276L95.716 49.464ZM100.852 48.552H101.352L100.852 48.052V48.552ZM100.852 56.76L100.795 57.2567L101.352 56.76H100.852ZM94.18 58.2L93.837 57.8362L93.8318 57.8412L94.18 58.2ZM92.548 75V75.5L93.048 75H92.548ZM83.428 75H82.928L83.428 75.5V75ZM83.428 48.984V48.484L82.928 48.984H83.428ZM92.116 48.984H92.616L92.116 48.484V48.984ZM92.5095 52.4124C93.3796 51.3024 94.505 50.4748 95.8982 49.9296L95.5338 48.9984C93.983 49.6052 92.7085 50.5376 91.7225 51.7956L92.5095 52.4124ZM95.9034 49.9276C97.338 49.3476 98.9847 49.052 100.852 49.052V48.052C98.8793 48.052 97.102 48.3644 95.5286 49.0004L95.9034 49.9276ZM100.352 48.552V56.76H101.352V48.552H100.352ZM100.909 56.2633C100.067 56.1661 99.3584 56.116 98.788 56.116V57.116C99.3056 57.116 99.9727 57.1619 100.795 57.2567L100.909 56.2633ZM98.788 56.116C96.7441 56.116 95.0728 56.671 93.837 57.8362L94.523 58.5638C95.5272 57.617 96.9279 57.116 98.788 57.116V56.116ZM93.8318 57.8412C92.6111 59.026 92.048 60.7962 92.048 63.048H93.048C93.048 60.9478 93.5729 59.486 94.5282 58.5588L93.8318 57.8412ZM92.048 63.048V75H93.048V63.048H92.048ZM92.548 74.5H83.428V75.5H92.548V74.5ZM83.928 75V48.984H82.928V75H83.928ZM83.428 49.484H92.116V48.484H83.428V49.484ZM91.616 48.984V52.104H92.616V48.984H91.616ZM104.616 48.984V48.484L104.116 48.984H104.616ZM113.736 48.984H114.236L113.736 48.484V48.984ZM113.736 75V75.5L114.236 75H113.736ZM104.616 75H104.116L104.616 75.5V75ZM105.144 44.712L105.479 44.3415L105.144 44.712ZM105.144 37.8L105.479 38.1705L105.144 37.8ZM113.208 37.752L112.878 38.1283L112.885 38.1341L113.208 37.752ZM113.208 44.712L113.543 45.0825L113.549 45.0768L113.208 44.712ZM104.616 49.484H113.736V48.484H104.616V49.484ZM113.236 48.984V75H114.236V48.984H113.236ZM113.736 74.5H104.616V75.5H113.736V74.5ZM105.116 75V48.984H104.116V75H105.116ZM109.175 45.604C107.609 45.604 106.393 45.1698 105.479 44.3415L104.808 45.0825C105.942 46.1102 107.414 46.604 109.175 46.604V45.604ZM105.479 44.3415C104.559 43.5078 104.107 42.4902 104.107 41.256H103.107C103.107 42.7738 103.68 44.0602 104.808 45.0825L105.479 44.3415ZM104.107 41.256C104.107 40.0218 104.559 39.0042 105.479 38.1705L104.808 37.4295C103.68 38.4518 103.107 39.7382 103.107 41.256H104.107ZM105.479 38.1705C106.393 37.3422 107.609 36.908 109.175 36.908V35.908C107.414 35.908 105.942 36.4018 104.808 37.4295L105.479 38.1705ZM109.175 36.908C110.747 36.908 111.965 37.3288 112.878 38.1283L113.537 37.3757C112.402 36.3832 110.932 35.908 109.175 35.908V36.908ZM112.885 38.1341C113.793 38.9002 114.243 39.8787 114.243 41.112H115.243C115.243 39.5933 114.67 38.3318 113.53 37.3699L112.885 38.1341ZM114.243 41.112C114.243 42.4178 113.786 43.4845 112.866 44.3472L113.549 45.0768C114.677 44.0195 115.243 42.6862 115.243 41.112H114.243ZM112.872 44.3415C111.958 45.1698 110.742 45.604 109.175 45.604V46.604C110.937 46.604 112.409 46.1102 113.543 45.0825L112.872 44.3415ZM137.614 73.944L137.879 74.368L138.086 73.7774L137.614 73.944ZM134.782 75.048L134.671 74.5606L134.668 74.5613L134.782 75.048ZM123.454 72.936L123.117 73.3054L123.454 72.936ZM120.718 56.76H121.218L120.718 56.26V56.76ZM116.926 56.76H116.426L116.926 57.26V56.76ZM116.926 49.944V49.444L116.426 49.944H116.926ZM120.718 49.944V50.444L121.218 49.944H120.718ZM120.718 43.176V42.676L120.218 43.176H120.718ZM129.838 43.176H130.338L129.838 42.676V43.176ZM129.838 49.944H129.338L129.838 50.444V49.944ZM135.79 49.944H136.29L135.79 49.444V49.944ZM135.79 56.76V57.26L136.29 56.76H135.79ZM129.838 56.76V56.26L129.338 56.76H129.838ZM130.558 67.608L130.183 67.9388L130.205 67.9616L130.558 67.608ZM135.358 67.56L135.83 67.3934L135.077 67.1465L135.358 67.56ZM137.349 73.52C136.639 73.9637 135.751 74.3138 134.671 74.5606L134.894 75.5354C136.054 75.2702 137.053 74.8843 137.879 74.368L137.349 73.52ZM134.668 74.5613C133.621 74.8075 132.492 74.932 131.278 74.932V75.932C132.561 75.932 133.767 75.8005 134.897 75.5347L134.668 74.5613ZM131.278 74.932C127.964 74.932 125.494 74.1195 123.791 72.5666L123.117 73.3054C125.063 75.0805 127.809 75.932 131.278 75.932V74.932ZM123.791 72.5666C122.103 71.0262 121.218 68.7008 121.218 65.496H120.218C120.218 68.8832 121.158 71.5178 123.117 73.3054L123.791 72.5666ZM121.218 65.496V56.76H120.218V65.496H121.218ZM120.718 56.26H116.926V57.26H120.718V56.26ZM117.426 56.76V49.944H116.426V56.76H117.426ZM116.926 50.444H120.718V49.444H116.926V50.444ZM121.218 49.944V43.176H120.218V49.944H121.218ZM120.718 43.676H129.838V42.676H120.718V43.676ZM129.338 43.176V49.944H130.338V43.176H129.338ZM129.838 50.444H135.79V49.444H129.838V50.444ZM135.29 49.944V56.76H136.29V49.944H135.29ZM135.79 56.26H129.838V57.26H135.79V56.26ZM129.338 56.76V65.4H130.338V56.76H129.338ZM129.338 65.4C129.338 66.4148 129.602 67.2803 130.183 67.9388L130.933 67.2772C130.554 66.8477 130.338 66.2412 130.338 65.4H129.338ZM130.205 67.9616C130.825 68.5815 131.631 68.876 132.574 68.876V67.876C131.854 67.876 131.316 67.6585 130.912 67.2544L130.205 67.9616ZM132.574 68.876C133.721 68.876 134.749 68.579 135.64 67.9735L135.077 67.1465C134.368 67.629 133.54 67.876 132.574 67.876V68.876ZM134.887 67.7266L137.143 74.1106L138.086 73.7774L135.83 67.3934L134.887 67.7266Z"
            fill="black" />
    </g>
    <defs>
        <filter id="filter0_d" x="0.692001" y="0.900024" width="139.394" height="86.912" filterUnits="userSpaceOnUse"
            color-interpolation-filters="sRGB">
            <feFlood flood-opacity="0" result="BackgroundImageFix" />
            <feColorMatrix in="SourceAlpha" type="matrix" values="0 0 0 0 0 0 0 0 0 0 0 0 0 0 0 0 0 0 127 0" />
            <feOffset dx="2" dy="3" />
            <feColorMatrix type="matrix" values="0 0 0 0 0 0 0 0 0 0 0 0 0 0 0 0 0 0 1 0" />
            <feBlend mode="normal" in2="BackgroundImageFix" result="effect1_dropShadow" />
            <feBlend mode="normal" in="SourceGraphic" in2="effect1_dropShadow" result="shape" />
        </filter>
    </defs>
</svg>