<svg width="24" height="24" viewBox="0 0 24 24" fill="none" xmlns="http://www.w3.org/2000/svg">
<path d="M11.625 0.375C5.20312 0.375 0 5.57812 0 12C0 18.4219 5.20312 23.625 11.625 23.625C18.0469 23.625 23.25 18.4219 23.25 12C23.25 5.57812 18.0469 0.375 11.625 0.375ZM18.375 18.4875V13.125C18.375 12.5063 17.8687 12 17.25 12C16.6313 12 16.125 12.5063 16.125 13.125V20.2219C14.7891 20.9531 13.2563 21.375 11.625 21.375C9.99375 21.375 8.46094 20.9531 7.125 20.2219V13.125C7.125 12.5063 6.61875 12 6 12C5.38125 12 4.875 12.5063 4.875 13.125V18.4875C3.25313 16.8 2.25 14.5172 2.25 12C2.25 6.82969 6.45469 2.625 11.625 2.625C16.7953 2.625 21 6.82969 21 12C21 14.5172 19.9969 16.8047 18.375 18.4875ZM9.64688 10.9922C9.85313 10.8797 9.97031 10.6453 9.93281 10.4109C9.74531 9.22969 8.32969 8.4375 7.12969 8.4375C5.92969 8.4375 4.50938 9.22969 4.32656 10.4109C4.28906 10.6453 4.40625 10.8797 4.6125 10.9922C4.81875 11.1047 5.07656 11.0766 5.25469 10.9172L5.7 10.5187C6.39375 9.9 7.86563 9.9 8.55938 10.5187L9.00469 10.9172C9.12188 11.025 9.375 11.1422 9.64688 10.9922ZM16.125 8.4375C14.9203 8.4375 13.5047 9.22969 13.3219 10.4109C13.2844 10.6453 13.4016 10.8797 13.6078 10.9922C13.8187 11.1047 14.0719 11.0766 14.25 10.9172L14.6953 10.5187C15.3891 9.9 16.8609 9.9 17.5547 10.5187L18 10.9172C18.1172 11.0203 18.375 11.1375 18.6422 10.9922C18.8484 10.8797 18.9656 10.6453 18.9281 10.4109C18.7453 9.22969 17.3297 8.4375 16.125 8.4375ZM11.625 12.75C10.1766 12.75 9 14.0953 9 15.75C9 17.4047 10.1766 18.75 11.625 18.75C13.0734 18.75 14.25 17.4047 14.25 15.75C14.25 14.0953 13.0734 12.75 11.625 12.75Z" fill="black"/>
</svg>
