<svg width="20" height="20" viewBox="0 0 20 20" fill="none" xmlns="http://www.w3.org/2000/svg">
<path d="M10 16C14 16 15 12 15 12H5C5 12 6 16 10 16Z" fill="black"/>
<path d="M10 0C4.486 0 0 4.486 0 10C0 15.514 4.486 20 10 20C15.514 20 20 15.514 20 10C20 4.486 15.514 0 10 0ZM10 18C5.589 18 2 14.411 2 10C2 5.589 5.589 2 10 2C14.411 2 18 5.589 18 10C18 14.411 14.411 18 10 18Z" fill="black"/>
<path d="M11 10L13 10.012C13.012 9.55 13.194 9 14 9C14.806 9 14.988 9.55 15 10H17C17 8.794 16.201 7 14 7C11.799 7 11 8.794 11 10ZM6 9C6.806 9 6.988 9.55 7 10H9C9 8.794 8.201 7 6 7C3.799 7 3 8.794 3 10L5 10.012C5.012 9.55 5.194 9 6 9Z" fill="black"/>
</svg>
