<svg width="20" height="20" viewBox="0 0 20 20" fill="none" xmlns="http://www.w3.org/2000/svg">
<path d="M7.75 12H12.25C12.4489 12 12.6397 12.079 12.7803 12.2197C12.921 12.3603 13 12.5511 13 12.75C13 12.9489 12.921 13.1397 12.7803 13.2803C12.6397 13.421 12.4489 13.5 12.25 13.5H7.75C7.55109 13.5 7.36032 13.421 7.21967 13.2803C7.07902 13.1397 7 12.9489 7 12.75C7 12.5511 7.07902 12.3603 7.21967 12.2197C7.36032 12.079 7.55109 12 7.75 12Z" fill="black"/>
<path d="M13.5 9C14.3284 9 15 8.32843 15 7.5C15 6.67157 14.3284 6 13.5 6C12.6716 6 12 6.67157 12 7.5C12 8.32843 12.6716 9 13.5 9Z" fill="black"/>
<path d="M6.5 9C7.32843 9 8 8.32843 8 7.5C8 6.67157 7.32843 6 6.5 6C5.67157 6 5 6.67157 5 7.5C5 8.32843 5.67157 9 6.5 9Z" fill="black"/>
<path d="M9.99 0C4.47 0 0 4.48 0 10C0 15.52 4.47 20 9.99 20C15.52 20 20 15.52 20 10C20 4.48 15.52 0 9.99 0ZM10 18C5.58 18 2 14.42 2 10C2 5.58 5.58 2 10 2C14.42 2 18 5.58 18 10C18 14.42 14.42 18 10 18Z" fill="black"/>
</svg>
